<svg width="64" height="64" viewBox="0 0 64 64" fill="none" xmlns="http://www.w3.org/2000/svg">
<path d="M48 50V46C48 43.8783 47.1571 41.8434 45.6569 40.3431C44.1566 38.8429 42.1217 38 40 38H24C21.8783 38 19.8434 38.8429 18.3431 40.3431C16.8429 41.8434 16 43.8783 16 46V50M40 22C40 26.4183 36.4183 30 32 30C27.5817 30 24 26.4183 24 22C24 17.5817 27.5817 14 32 14C36.4183 14 40 17.5817 40 22Z" stroke="#F3F3F3" stroke-width="4" stroke-linecap="round" stroke-linejoin="round"/>
<path d="M32 58.6667C46.7276 58.6667 58.6667 46.7276 58.6667 32C58.6667 17.2724 46.7276 5.33333 32 5.33333C17.2724 5.33333 5.33337 17.2724 5.33337 32C5.33337 46.7276 17.2724 58.6667 32 58.6667Z" stroke="#F3F3F3" stroke-width="4" stroke-linecap="round" stroke-linejoin="round"/>
</svg>
